<?xml version="1.0" encoding="utf-8"?>
<!-- Generator: Adobe Illustrator 28.4.1, SVG Export Plug-In . SVG Version: 6.00 Build 0)  -->
<svg version="1.1" id="Шар_1" xmlns="http://www.w3.org/2000/svg" xmlns:xlink="http://www.w3.org/1999/xlink" x="0px" y="0px"
	 viewBox="0 0 1000 1000" style="enable-background:new 0 0 1000 1000;" xml:space="preserve">
<style type="text/css">
	.st0{fill:#FFFFFF;}
</style>
<path class="st0" d="M499.39,460.42c-0.54,0.12-0.96,0.42-1.24,0.87c-0.23,0.37-0.24,0.64-0.24,6.85c0,7.22-0.02,7.01,0.84,7.58
	c0.84,0.56,2.23,0.19,2.75-0.72c0.19-0.34,0.2-0.94,0.2-6.85c0-6.08-0.01-6.5-0.22-6.83C501.05,460.61,500.18,460.24,499.39,460.42z
	"/>
<path class="st0" d="M508.94,461.57c-0.55,0.12-0.93,0.32-1.13,0.62c-0.13,0.18-0.48,1.28-0.77,2.45c-0.3,1.18-0.99,3.85-1.52,5.94
	c-0.55,2.15-0.98,4.05-0.98,4.38c0,0.75,0.34,1.28,1.01,1.6c0.63,0.31,0.95,0.31,1.59,0.02c0.71-0.32,0.96-0.71,1.25-1.95
	c0.14-0.61,0.82-3.27,1.52-5.93c0.69-2.66,1.25-5.07,1.25-5.36C511.17,462.27,509.98,461.34,508.94,461.57z"/>
<path class="st0" d="M489.37,461.85c-0.52,0.32-0.87,0.9-0.87,1.48c0,0.26,0.19,1.22,0.43,2.14c0.23,0.91,0.94,3.63,1.55,6.06
	c1.1,4.29,1.13,4.41,1.54,4.77c0.77,0.69,1.86,0.63,2.6-0.13c0.72-0.74,0.71-0.83-0.95-7.45c-0.81-3.23-1.55-6.05-1.65-6.25
	C491.65,461.65,490.25,461.32,489.37,461.85z"/>
<path class="st0" d="M480.61,465.45c-0.34,0.18-0.57,0.44-0.77,0.84c-0.47,0.94-0.65,0.55,4.3,9.22c0.69,1.21,1.39,2.38,1.55,2.59
	c0.42,0.56,0.93,0.77,1.63,0.71c0.93-0.1,1.63-0.72,1.75-1.59c0.07-0.55-0.05-0.8-3.19-6.46c-2.41-4.36-2.81-4.99-3.28-5.32
	C482.07,465.09,481.26,465.09,480.61,465.45z"/>
<path class="st0" d="M517.37,465.34c-0.51,0.21-0.89,0.7-1.57,1.94c-0.33,0.57-1.27,2.27-2.11,3.78c-2.62,4.67-3.01,5.46-3.01,6.05
	c0,1.39,1.66,2.26,2.86,1.47c0.51-0.33,0.45-0.25,2.93-4.61c3.91-6.84,3.65-6.35,3.59-7.02c-0.1-0.99-0.77-1.65-1.75-1.73
	C517.98,465.18,517.58,465.24,517.37,465.34z"/>
<path class="st0" d="M473.02,470.62c-1.08,0.5-1.41,1.78-0.7,2.74c0.22,0.27,1.98,2.11,3.92,4.09c1.95,1.96,3.75,3.8,4,4.07
	c0.24,0.27,0.69,0.62,0.99,0.75c0.48,0.24,0.59,0.25,1.13,0.12c0.74-0.18,1.27-0.65,1.46-1.32c0.22-0.69-0.01-1.28-0.82-2.16
	c-0.78-0.84-7.18-7.47-7.63-7.91C474.72,470.39,473.85,470.24,473.02,470.62z"/>
<path class="st0" d="M524.97,470.62c-0.27,0.12-0.84,0.58-1.28,1.03c-7.1,7.35-7.65,7.96-7.77,8.53c-0.19,1.02,0.37,1.92,1.37,2.22
	c1.02,0.3,1.23,0.15,4.17-2.78c4.06-4.06,6.33-6.46,6.41-6.79C528.28,471.22,526.54,469.9,524.97,470.62z"/>
<path class="st0" d="M467.35,477.22c-0.49,0.21-0.99,0.81-1.15,1.38c-0.14,0.53-0.02,1.18,0.31,1.65c0.23,0.31,2,1.47,5.77,3.78
	c5.28,3.21,4.97,3.08,5.88,2.67c1.4-0.61,1.7-2.23,0.59-3.27c-0.37-0.34-8.65-5.53-9.65-6.05
	C468.4,477.01,467.92,476.98,467.35,477.22z"/>
<path class="st0" d="M530.88,477.25c-0.51,0.26-9.1,5.7-9.57,6.06c-0.52,0.38-0.77,0.9-0.77,1.58c0,0.68,0.25,1.2,0.77,1.58
	c0.82,0.61,1.48,0.53,2.87-0.31c3.66-2.22,8.62-5.34,8.96-5.65c0.75-0.67,0.88-1.51,0.41-2.4
	C533.04,477.18,531.78,476.76,530.88,477.25z"/>
<path class="st0" d="M500.62,483.95c-2.96,0.39-6,1.62-8.49,3.41c-1.05,0.76-3.11,2.9-3.84,4c-0.9,1.33-1.88,3.37-2.24,4.63
	c-0.55,1.95-0.71,3.15-0.64,5.11c0.06,1.9,0.17,2.55,0.65,4.01l0.3,0.91l16.4-0.02l16.42-0.04l0.27-0.93
	c0.57-1.97,0.67-2.7,0.67-4.54c0-1.37-0.06-2.07-0.25-2.98c-0.75-3.46-2.25-6.16-4.85-8.73c-2.51-2.47-5.15-3.88-8.67-4.63
	C505.02,483.89,501.96,483.77,500.62,483.95z"/>
<path class="st0" d="M535.69,485.03c-0.27,0.06-2.87,0.88-5.79,1.84c-4.88,1.6-5.34,1.77-5.75,2.17c-1.23,1.2-0.37,3.27,1.35,3.24
	c0.57,0,10.17-3.08,11.41-3.65C539,487.68,537.93,484.57,535.69,485.03z"/>
<path class="st0" d="M463,485.23c-1.23,0.74-1.34,2.54-0.18,3.27c0.66,0.43,11.34,3.87,11.98,3.87c1.21,0,2.15-1.32,1.78-2.49
	c-0.29-0.97-0.36-1.01-6.51-3.02C464.12,484.9,463.7,484.81,463,485.23z"/>
<path class="st0" d="M461.34,494.03c-1.34,0.4-1.71,2.33-0.65,3.3c0.43,0.39,1.08,0.46,6.24,0.74c5.76,0.3,6.21,0.3,6.75,0.01
	c1.28-0.67,1.25-2.76-0.04-3.41c-0.28-0.15-0.96-0.21-2.9-0.29c-2.69-0.11-7.11-0.32-8.33-0.4
	C462.01,493.96,461.53,493.99,461.34,494.03z"/>
<path class="st0" d="M534.61,494.1c-1.46,0.08-3.77,0.2-5.15,0.26c-2.86,0.13-3.13,0.21-3.58,1.14c-0.31,0.62-0.31,1.06-0.02,1.69
	c0.27,0.58,0.74,0.96,1.33,1.08c0.24,0.04,2.19-0.02,4.35-0.14c2.16-0.12,4.63-0.25,5.48-0.3c1.77-0.08,2.33-0.26,2.7-0.88
	c0.36-0.58,0.43-1.19,0.2-1.78c-0.23-0.59-0.58-0.94-1.14-1.13C538.31,493.89,538.15,493.89,534.61,494.1z"/>
<path class="st0" d="M461.18,502.23c-1.23,0.55-1.46,2.11-0.46,3.18l0.4,0.44l9.51,0.04l9.52,0.02l0.4-0.26
	c0.58-0.39,0.87-0.83,0.93-1.44c0.08-0.72-0.3-1.52-0.9-1.89l-0.45-0.27l-9.22-0.02C462.01,501.99,461.66,502,461.18,502.23z"/>
<path class="st0" d="M525.47,502.16c-0.89,0.32-1.29,0.9-1.29,1.88c0,0.75,0.29,1.29,0.87,1.64c0.39,0.24,0.58,0.24,7.11,0.21
	c6.56-0.04,6.71-0.04,7.04-0.29c1.24-0.91,1.14-2.68-0.19-3.35c-0.53-0.26-0.53-0.26-6.81-0.26
	C527.23,502,525.83,502.04,525.47,502.16z"/>
<path class="st0" d="M461.81,510.53c-0.45,0.19-0.71,0.59-0.7,1.07c0.05,1.01,1.66,5.12,3.01,7.61c0.53,0.99,1.46,2.54,1.69,2.84
	c0.01,0.02,0.53-0.18,1.13-0.46c3.51-1.59,8.21-2.51,12.1-2.33c2.39,0.11,4.05,0.37,8.44,1.37c5.42,1.22,8.93,1.38,13.44,0.59
	c1.89-0.33,3.66-0.8,6.92-1.84c1.51-0.49,3.46-1.07,4.34-1.28c7.7-1.96,15.36-1.28,21.86,1.94l1.23,0.61l0.25-0.38
	c0.96-1.51,2.74-5.59,3.36-7.78c0.24-0.86,0.27-1.01,0.12-1.34c-0.31-0.75,0.72-0.71-18.19-0.71c-11,0-17.67,0.05-18.46,0.12
	c-1.49,0.15-3,0.5-5.59,1.28c-5.74,1.76-9.09,1.73-14.95-0.11c-1.06-0.33-2.56-0.74-3.31-0.9l-1.39-0.31l-7.53-0.04
	C465.44,510.45,461.94,510.47,461.81,510.53z"/>
<path class="st0" d="M517.55,522.36c-2.74,0.36-4.47,0.77-7.89,1.9c-4.25,1.4-6.06,1.9-8.55,2.32c-3.12,0.52-6.45,0.58-9.53,0.17
	c-1.68-0.23-2.54-0.4-5.64-1.13c-3.41-0.8-5.01-1.06-7.07-1.14c-2.33-0.1-4.8,0.19-6.69,0.75c-1.47,0.44-3.07,1.06-3.07,1.19
	c0,0.08,0.77,0.91,1.72,1.85c4.35,4.34,9.02,7.35,14.43,9.34c4.01,1.47,8.74,2.46,13.01,2.71l1.28,0.07l0.52-0.63
	c1.52-1.85,4.21-4.26,6.2-5.53c4.23-2.72,9.44-3.93,14.21-3.31c1.34,0.18,3.63,0.7,4.31,0.97l0.41,0.17l1.02-0.86
	c0.57-0.48,1.58-1.38,2.24-2c1.31-1.24,3.93-4.03,3.93-4.19s-2.27-1.15-3.76-1.63c-1.51-0.49-3.27-0.87-4.92-1.07
	C522.35,522.15,518.99,522.17,517.55,522.36z"/>
<path class="st0" d="M516.59,535.96c-2.64,0.24-5.8,1.4-7.99,2.95c-0.51,0.36-0.92,0.68-0.89,0.7c0.11,0.1,4.89-1.19,6.26-1.67
	c1.39-0.5,4.45-1.83,4.64-2.02C518.7,535.83,517.96,535.84,516.59,535.96z"/>
</svg>
