<svg width="22" height="14" viewBox="0 0 22 14" fill="none" xmlns="http://www.w3.org/2000/svg">
<path d="M20.6029 5.995C20.8585 6.27063 21 6.62872 21 7C21 7.37128 20.8585 7.72937 20.6029 8.005C18.9844 9.7 15.3005 13 11 13C6.69951 13 3.01559 9.7 1.39712 8.005C1.1415 7.72937 1 7.37128 1 7C1 6.62872 1.1415 6.27063 1.39712 5.995C3.01559 4.3 6.69951 1 11 1C15.3005 1 18.9844 4.3 20.6029 5.995Z" stroke="white" stroke-width="2" stroke-linecap="round" stroke-linejoin="round"/>
<path d="M11.0003 10C12.7028 10 14.0831 8.65685 14.0831 7C14.0831 5.34315 12.7028 4 11.0003 4C9.29769 4 7.91748 5.34315 7.91748 7C7.91748 8.65685 9.29769 10 11.0003 10Z" stroke="white" stroke-width="2" stroke-linecap="round" stroke-linejoin="round"/>
</svg>
