<svg width="13" height="22" viewBox="0 0 13 22" fill="none" xmlns="http://www.w3.org/2000/svg">
<path d="M6.49979 7.15385C8.23554 7.15385 9.64265 5.77626 9.64265 4.07692C9.64265 2.37759 8.23554 1 6.49979 1C4.76404 1 3.35693 2.37759 3.35693 4.07692C3.35693 5.77626 4.76404 7.15385 6.49979 7.15385Z" stroke="white" stroke-linecap="round" stroke-linejoin="round"/>
<path d="M12 12.5385C12 11.1105 11.4205 9.74086 10.3891 8.73105C9.35764 7.72124 7.95869 7.15393 6.5 7.15393C5.04131 7.15393 3.64236 7.72124 2.61091 8.73105C1.57946 9.74086 1 11.1105 1 12.5385V14.8462H3.35714L4.14286 21.0001H8.85714L9.64286 14.8462H12V12.5385Z" stroke="white" stroke-linecap="round" stroke-linejoin="round"/>
</svg>
