<svg width="22" height="22" viewBox="0 0 22 22" fill="none" xmlns="http://www.w3.org/2000/svg">
<path d="M11.7692 1C12.4833 1 13.1681 1.28365 13.673 1.78856C14.1779 2.29346 14.4615 2.97826 14.4615 3.69231C14.4615 4.40635 14.1779 5.09115 13.673 5.59606C13.1681 6.10096 12.4833 6.38462 11.7692 6.38462H1" stroke="white" stroke-width="2" stroke-linecap="round" stroke-linejoin="round"/>
<path d="M18.3076 16.3846C19.0217 16.3846 19.7065 16.101 20.2114 15.5961C20.7163 15.0912 20.9999 14.4064 20.9999 13.6923C20.9999 12.9783 20.7163 12.2935 20.2114 11.7886C19.7065 11.2837 19.0217 11 18.3076 11H3.30762" stroke="white" stroke-width="2" stroke-linecap="round" stroke-linejoin="round"/>
<path d="M11.3847 21C12.0988 21 12.7836 20.7163 13.2885 20.2114C13.7934 19.7065 14.077 19.0217 14.077 18.3077C14.077 17.5936 13.7934 16.9088 13.2885 16.4039C12.7836 15.899 12.0988 15.6154 11.3847 15.6154H2.53857" stroke="white" stroke-width="2" stroke-linecap="round" stroke-linejoin="round"/>
</svg>
