<svg width="19" height="19" viewBox="0 0 19 19" fill="none" xmlns="http://www.w3.org/2000/svg">
<g filter="url(#filter0_i_103_62)">
<path d="M15.7183 18.5019C16.9954 18.0085 18.005 16.9989 18.4984 15.7218C18.732 15.1168 18.8955 14.4266 18.9399 13.417C18.9504 13.1805 18.9585 12.982 18.9661 12.7829V6.03728C18.9609 5.89655 18.955 5.74999 18.9474 5.58532C18.9031 4.5757 18.7396 3.88199 18.506 3.28053C18.2648 2.6423 17.8934 2.07063 17.4076 1.59589C16.9323 1.11298 16.3571 0.738092 15.7259 0.501015C15.1209 0.267442 14.4307 0.103941 13.4211 0.0595623C12.4039 0.0110959 12.081 0 9.50175 0C6.92252 0 6.59902 0.0110954 5.5859 0.0554743C4.57628 0.0998532 3.88257 0.263354 3.28112 0.496927C2.64288 0.738091 2.07121 1.10947 1.59589 1.59589C1.11356 2.07121 0.738674 2.64638 0.501013 3.27703C0.26744 3.88199 0.103939 4.57219 0.0595605 5.58181C0.0110941 6.59902 0 6.92194 0 9.50175C0 12.0816 0.0110937 12.4045 0.0554725 13.4176C0.0998514 14.4272 0.263353 15.1215 0.49751 15.7224C0.738674 16.3606 1.11356 16.9323 1.59589 17.4076C2.07121 17.8899 2.64638 18.2654 3.27761 18.5025C3.88257 18.7361 4.57278 18.8996 5.5824 18.9439C6.59552 18.9889 6.91843 19 9.49825 19C12.0781 19 12.4004 18.9889 13.4141 18.9439C14.4237 18.8996 15.1174 18.7361 15.7189 18.5025L15.7183 18.5019ZM9.50526 17.292C6.96982 17.292 6.66559 17.2809 5.66707 17.2365C4.7392 17.1956 4.23818 17.0397 3.90417 16.9101C3.4925 16.7577 3.11762 16.5165 2.8128 16.2012C2.49748 15.8929 2.25573 15.5221 2.10391 15.1098C1.97428 14.7758 1.81836 14.2707 1.77749 13.3469C1.73311 12.3449 1.72202 12.0442 1.72202 9.50876C1.72202 6.97333 1.73311 6.6691 1.77749 5.67116C1.81836 4.74329 1.97428 4.24227 2.10391 3.90826C2.25632 3.49601 2.49748 3.12112 2.81689 2.81689C3.12462 2.50157 3.496 2.2604 3.90768 2.108C4.24169 1.97836 4.74679 1.82245 5.67057 1.78158C6.6726 1.7372 6.97332 1.72611 9.50818 1.72611C12.043 1.72611 12.3478 1.7372 13.3464 1.78158C14.2742 1.82245 14.7752 1.97836 15.1093 2.108C15.5209 2.2604 15.8958 2.50157 16.2 2.81689C16.5154 3.12521 16.7571 3.49601 16.9089 3.90826C17.0386 4.24227 17.1945 4.74679 17.2354 5.67116C17.2797 6.67318 17.2908 6.97391 17.2908 9.50876C17.2908 12.0436 17.2797 12.3408 17.2354 13.3429C17.1945 14.2707 17.0386 14.7717 16.9089 15.1058C16.5895 15.9338 15.9326 16.5907 15.1052 16.9095C14.7712 17.0392 14.2666 17.1951 13.3423 17.2359C12.3402 17.2803 12.0395 17.2914 9.50467 17.2914L9.50526 17.292Z" fill="white"/>
<path d="M9.5017 4.62012C6.80685 4.62012 4.62061 6.80636 4.62061 9.50121C4.62061 12.1961 6.80685 14.3823 9.5017 14.3823C12.1965 14.3823 14.3822 12.1961 14.3822 9.50121C14.3822 6.80636 12.196 4.62012 9.5017 4.62012V4.62012ZM9.5017 12.6667C7.7534 12.6667 6.33562 11.2489 6.33562 9.50062C6.33562 7.75233 7.7534 6.33454 9.5017 6.33454C11.25 6.33454 12.6678 7.75233 12.6678 9.50062C12.6678 11.2489 11.25 12.6667 9.5017 12.6667Z" fill="white"/>
<path d="M15.7149 4.42734C15.7149 3.79786 15.2045 3.28809 14.575 3.28809C13.9456 3.28809 13.4358 3.79844 13.4358 4.42734C13.4358 5.05623 13.9461 5.56659 14.575 5.56659C15.2039 5.56659 15.7149 5.05682 15.7149 4.42734Z" fill="white"/>
</g>
<defs>
<filter id="filter0_i_103_62" x="0" y="0" width="18.9661" height="19.5" filterUnits="userSpaceOnUse" color-interpolation-filters="sRGB">
<feFlood flood-opacity="0" result="BackgroundImageFix"/>
<feBlend mode="normal" in="SourceGraphic" in2="BackgroundImageFix" result="shape"/>
<feColorMatrix in="SourceAlpha" type="matrix" values="0 0 0 0 0 0 0 0 0 0 0 0 0 0 0 0 0 0 127 0" result="hardAlpha"/>
<feOffset dy="0.5"/>
<feGaussianBlur stdDeviation="1.25"/>
<feComposite in2="hardAlpha" operator="arithmetic" k2="-1" k3="1"/>
<feColorMatrix type="matrix" values="0 0 0 0 0 0 0 0 0 0 0 0 0 0 0 0 0 0 0.1 0"/>
<feBlend mode="normal" in2="shape" result="effect1_innerShadow_103_62"/>
</filter>
</defs>
</svg>
