<svg width="19" height="17" viewBox="0 0 19 17" fill="none" xmlns="http://www.w3.org/2000/svg">
<path d="M18.9155 2.5721C18.3009 2.83684 17.6548 3.02119 16.9931 3.1206C17.3024 3.06752 17.7576 2.51018 17.9388 2.28459C18.2141 1.94431 18.4239 1.55585 18.5575 1.13895C18.5575 1.10799 18.5885 1.06375 18.5575 1.04164C18.5419 1.03312 18.5245 1.02866 18.5067 1.02866C18.4889 1.02866 18.4715 1.03312 18.4559 1.04164C17.7374 1.43108 16.9727 1.72831 16.1799 1.9263C16.1523 1.93475 16.1229 1.93551 16.0948 1.92849C16.0668 1.92148 16.0412 1.90696 16.0208 1.88649C15.9591 1.81294 15.8927 1.7435 15.8219 1.67859C15.4986 1.38862 15.1317 1.15129 14.7348 0.975287C14.1989 0.755261 13.6201 0.659973 13.0421 0.696618C12.4813 0.73207 11.9337 0.882635 11.4335 1.13895C10.9409 1.40918 10.5079 1.7763 10.1607 2.21824C9.79542 2.67311 9.53171 3.201 9.3873 3.7664C9.26822 4.30421 9.25471 4.86006 9.34752 5.40303C9.34752 5.49592 9.34752 5.50919 9.26797 5.49592C6.11695 5.03147 3.53161 3.91237 1.41914 1.51051C1.32634 1.40435 1.27772 1.40435 1.20259 1.51051C0.28336 2.90828 0.729718 5.11993 1.87876 6.21249C2.03344 6.35846 2.19253 6.50001 2.36047 6.63271C1.83364 6.59527 1.31968 6.45238 0.849041 6.21249C0.760653 6.15499 0.71204 6.18595 0.707621 6.29211C0.695093 6.43929 0.695093 6.58727 0.707621 6.73444C0.799834 7.43978 1.07756 8.10796 1.51239 8.67063C1.94722 9.23331 2.52357 9.6703 3.18248 9.93692C3.3431 10.0058 3.51047 10.0577 3.68187 10.0917C3.19416 10.1878 2.69395 10.2028 2.20137 10.136C2.09531 10.1139 2.05553 10.1714 2.09531 10.2731C2.74496 12.0424 4.15474 12.5821 5.18888 12.8829C5.3303 12.905 5.47172 12.905 5.63082 12.9404C5.63082 12.9404 5.63082 12.9404 5.6043 12.9669C5.29936 13.5242 4.06636 13.9002 3.50067 14.0948C2.46816 14.466 1.36731 14.6079 0.274521 14.5106C0.102165 14.4841 0.0623902 14.4885 0.0181963 14.5106C-0.0259975 14.5328 0.0181963 14.5814 0.0668096 14.6256C0.287779 14.7716 0.508748 14.8999 0.738556 15.0237C1.4227 15.3972 2.14597 15.6939 2.89522 15.9084C6.77544 16.9788 11.1418 16.1915 14.0542 13.2942C16.3434 11.0206 17.1477 7.88451 17.1477 4.74395C17.1477 4.62452 17.2936 4.55375 17.3776 4.49182C17.9567 4.04016 18.4673 3.50675 18.8934 2.90828C18.9672 2.81907 19.005 2.70548 18.9995 2.5898C18.9995 2.52345 18.9995 2.53672 18.9155 2.5721Z" fill="white"/>
</svg>
