<svg width="18" height="16" viewBox="0 0 18 16" fill="none" xmlns="http://www.w3.org/2000/svg">
<path d="M1.30203 6.68307C1.30203 6.68307 8.77158 3.3704 11.3621 2.20393C12.3552 1.73738 15.723 0.244295 15.723 0.244295C15.723 0.244295 17.2774 -0.408875 17.1478 1.17746C17.1046 1.83069 16.7592 4.11688 16.4138 6.58976C15.8957 10.0891 15.3344 13.915 15.3344 13.915C15.3344 13.915 15.248 14.9882 14.5141 15.1748C13.7801 15.3614 12.5711 14.5216 12.3552 14.3349C12.1825 14.195 9.11698 12.0954 7.99439 11.0689C7.69214 10.789 7.34675 10.2291 8.03754 9.57587C9.59192 8.03616 11.4485 6.12321 12.5711 4.91011C13.0892 4.35019 13.6073 3.04379 11.4485 4.63012C8.38299 6.91637 5.36063 9.06263 5.36063 9.06263C5.36063 9.06263 4.66978 9.52918 3.3745 9.10925C2.07916 8.68939 0.567983 8.12947 0.567983 8.12947C0.567983 8.12947 -0.468194 7.42961 1.30203 6.68307Z" fill="white"/>
</svg>
