<svg width="14" height="14" viewBox="0 0 14 14" fill="none" xmlns="http://www.w3.org/2000/svg">
<path d="M3.10281 8.46091L2.61547 10.2802L0.834261 10.3179C0.301941 9.33055 0 8.20091 0 7.00048C0 5.83967 0.282307 4.745 0.782716 3.78113H0.783099L2.36888 4.07186L3.06354 5.64812C2.91815 6.07199 2.8389 6.52701 2.8389 7.00048C2.83896 7.51434 2.93204 8.00668 3.10281 8.46091Z" fill="#FBBB00"/>
<path d="M13.8777 5.69263C13.9581 6.11609 14 6.55341 14 7.00036C14 7.50154 13.9474 7.99041 13.847 8.46197C13.5062 10.0666 12.6158 11.4678 11.3823 12.4594L11.3819 12.459L9.38453 12.3571L9.10184 10.5924C9.92032 10.1124 10.56 9.36123 10.8969 8.46197H7.15369V5.69263H10.9515H13.8777Z" fill="#518EF8"/>
<path d="M11.383 12.4588L11.3834 12.4592C10.1838 13.4234 8.65985 14.0004 7.00095 14.0004C4.33509 14.0004 2.01732 12.5103 0.834961 10.3176L3.10351 8.46057C3.69467 10.0383 5.21665 11.1614 7.00095 11.1614C7.76789 11.1614 8.4864 10.9541 9.10294 10.5922L11.383 12.4588Z" fill="#28B446"/>
<path d="M11.4679 1.61159L9.2001 3.46819C8.56201 3.06934 7.80773 2.83893 6.99964 2.83893C5.17496 2.83893 3.62451 4.01358 3.06296 5.64789L0.782487 3.7809H0.782104C1.94715 1.53467 4.29415 0 6.99964 0C8.69816 0 10.2555 0.60503 11.4679 1.61159Z" fill="#F14336"/>
</svg>
