<svg width="24" height="24" viewBox="0 0 24 24" fill="none" xmlns="http://www.w3.org/2000/svg">
<path d="M12.0003 13.6922C14.3369 13.6922 16.2311 11.798 16.2311 9.46145C16.2311 7.12486 14.3369 5.23068 12.0003 5.23068C9.66371 5.23068 7.76953 7.12486 7.76953 9.46145C7.76953 11.798 9.66371 13.6922 12.0003 13.6922Z" stroke="white" stroke-width="2" stroke-linecap="round" stroke-linejoin="round"/>
<path d="M4.77368 20.2926C5.52886 19.053 6.59022 18.0285 7.85572 17.3176C9.12123 16.6068 10.5483 16.2334 11.9998 16.2334C13.4513 16.2334 14.8784 16.6068 16.1439 17.3176C17.4095 18.0285 18.4708 19.053 19.226 20.2926" stroke="white" stroke-width="2" stroke-linecap="round" stroke-linejoin="round"/>
<path d="M12 23C18.0751 23 23 18.0751 23 12C23 5.92487 18.0751 1 12 1C5.92487 1 1 5.92487 1 12C1 18.0751 5.92487 23 12 23Z" stroke="white" stroke-width="2" stroke-linecap="round" stroke-linejoin="round"/>
</svg>
