<svg width="80" height="80" viewBox="0 0 80 80" fill="none" xmlns="http://www.w3.org/2000/svg">
<path d="M39.3163 0.0445022C38.7739 0.163272 38.3521 0.460194 38.0749 0.911518C37.8459 1.2797 37.8338 1.55287 37.8338 7.7645C37.8338 14.9857 37.8097 14.7719 38.6775 15.342C39.5212 15.9002 40.9073 15.532 41.4255 14.6175C41.6184 14.2731 41.6304 13.6792 41.6304 7.7645C41.6304 1.68352 41.6184 1.26782 41.4135 0.935271C40.9796 0.234533 40.1118 -0.133652 39.3163 0.0445022Z" fill="white"/>
<path d="M48.8621 1.19656C48.3077 1.31533 47.9341 1.51724 47.7292 1.81416C47.5966 1.99231 47.2471 3.09687 46.9578 4.2608C46.6565 5.43662 45.9695 8.10893 45.4392 10.1993C44.8847 12.349 44.4629 14.2493 44.4629 14.5818C44.4629 15.3301 44.8004 15.8646 45.4753 16.1852C46.1021 16.494 46.4275 16.494 47.0663 16.209C47.7774 15.8883 48.0305 15.4964 48.3198 14.2612C48.4644 13.6554 49.1394 10.995 49.8384 8.33459C50.5254 5.67416 51.0919 3.26314 51.0919 2.9781C51.0919 1.8973 49.9107 0.959021 48.8621 1.19656Z" fill="white"/>
<path d="M29.3004 1.46973C28.7821 1.79041 28.4326 2.37238 28.4326 2.95435C28.4326 3.21564 28.6255 4.17767 28.8665 5.09219C29.0955 6.00672 29.8066 8.72653 30.4213 11.1494C31.5181 15.437 31.5543 15.5558 31.9641 15.9239C32.7355 16.6128 33.8202 16.5534 34.5675 15.7933C35.2906 15.0569 35.2786 14.9619 33.6153 8.34647C32.8078 5.11595 32.0605 2.30112 31.9641 2.09921C31.5784 1.26783 30.1803 0.947149 29.3004 1.46973Z" fill="white"/>
<path d="M20.5382 5.06845C20.2007 5.2466 19.9717 5.50789 19.7668 5.91171C19.2967 6.84998 19.1159 6.45805 24.0696 15.1282C24.7566 16.3396 25.4557 17.5036 25.6244 17.7174C26.0463 18.2756 26.5525 18.4894 27.2516 18.43C28.1796 18.335 28.8787 17.7055 28.9992 16.8385C29.0715 16.2921 28.951 16.0427 25.8052 10.3774C23.3947 6.0186 22.9969 5.38912 22.5269 5.05657C21.9966 4.71214 21.189 4.71214 20.5382 5.06845Z" fill="white"/>
<path d="M57.2991 4.96151C56.7929 5.1753 56.4072 5.66225 55.7323 6.89745C55.4069 7.46754 54.4667 9.16595 53.6231 10.6743C51.0076 15.3419 50.6099 16.1377 50.6099 16.7197C50.6099 18.1093 52.2731 18.9763 53.4664 18.1924C53.9726 17.8599 53.9123 17.943 56.3952 13.5842C60.3003 6.74305 60.0472 7.23001 59.9869 6.5649C59.8905 5.57911 59.2155 4.91401 58.2393 4.83087C57.9018 4.80711 57.504 4.8665 57.2991 4.96151Z" fill="white"/>
<path d="M12.9449 10.2468C11.8602 10.7456 11.5347 12.0283 12.2458 12.9904C12.4628 13.2635 14.2225 15.1045 16.163 17.076C18.1155 19.0357 19.9114 20.8766 20.1645 21.1498C20.4056 21.423 20.8515 21.7674 21.1528 21.8981C21.6349 22.1356 21.7434 22.1475 22.2858 22.0168C23.021 21.8387 23.5513 21.3636 23.7442 20.6985C23.9611 20.0096 23.7321 19.4158 22.9246 18.5369C22.1412 17.6936 15.7411 11.0663 15.2952 10.6269C14.6443 10.0093 13.7765 9.86673 12.9449 10.2468Z" fill="white"/>
<path d="M64.8923 10.2468C64.6271 10.3655 64.0486 10.8287 63.6147 11.28C56.5156 18.6319 55.9612 19.2376 55.8406 19.8077C55.6478 20.8291 56.2143 21.7317 57.2147 22.0287C58.2391 22.3256 58.444 22.1831 61.3849 19.2495C65.4467 15.1876 67.7126 12.7884 67.797 12.4559C68.2068 10.8406 66.4712 9.52226 64.8923 10.2468Z" fill="white"/>
<path d="M7.28015 16.8385C6.78598 17.0523 6.29182 17.6461 6.13514 18.2162C5.9905 18.7507 6.11103 19.392 6.44851 19.8671C6.67751 20.1759 8.44926 21.3399 12.2218 23.644C17.5009 26.8507 17.1875 26.7201 18.1035 26.3163C19.5016 25.7106 19.803 24.0834 18.6941 23.0501C18.3205 22.7057 10.0402 17.5155 9.03985 17.0048C8.32874 16.6366 7.84663 16.601 7.28015 16.8385Z" fill="white"/>
<path d="M70.8103 16.8741C70.304 17.1354 61.7104 22.575 61.2404 22.9313C60.7221 23.3114 60.469 23.834 60.469 24.5109C60.469 25.1879 60.7221 25.7105 61.2404 26.0906C62.06 26.6963 62.7229 26.625 64.1089 25.7818C67.773 23.5608 72.7266 20.4372 73.0641 20.1284C73.8114 19.4633 73.944 18.62 73.4739 17.7292C72.9677 16.8028 71.7022 16.3871 70.8103 16.8741Z" fill="white"/>
<path d="M40.5457 23.5727C37.5807 23.9646 34.5434 25.188 32.0606 26.9814C31.012 27.7415 28.9509 29.8793 28.2157 30.9839C27.3118 32.3141 26.3355 34.3569 25.9739 35.6159C25.4195 37.5637 25.2628 38.7633 25.3351 40.723C25.3954 42.6233 25.5039 43.2765 25.986 44.7374L26.2873 45.6519L42.6911 45.6281L59.1069 45.5925L59.3721 44.6661C59.9386 42.6945 60.0471 41.97 60.0471 40.1291C60.0471 38.7633 59.9868 38.0625 59.7939 37.148C59.0467 33.6918 57.5401 30.9839 54.9487 28.4185C52.4418 25.9481 49.8022 24.5347 46.2828 23.7865C44.9449 23.5133 41.8835 23.3945 40.5457 23.5727Z" fill="white"/>
<path d="M75.6193 24.6535C75.3542 24.7128 72.7508 25.5324 69.834 26.4944C64.9526 28.0978 64.4946 28.264 64.0848 28.6679C62.8555 29.8674 63.7112 31.934 65.4347 31.9103C66.0012 31.9103 75.6073 28.8341 76.8487 28.264C78.9218 27.302 77.8611 24.1903 75.6193 24.6535Z" fill="white"/>
<path d="M2.92903 24.8554C1.69964 25.5918 1.59117 27.3971 2.74823 28.1216C3.41114 28.5491 14.0899 31.9934 14.7287 31.9934C15.9339 31.9934 16.8741 30.6751 16.5125 29.4993C16.2232 28.5254 16.1509 28.4897 10.004 26.4825C4.04993 24.5229 3.62809 24.4278 2.92903 24.8554Z" fill="white"/>
<path d="M1.26582 33.6562C-0.072037 34.06 -0.445672 35.984 0.61497 36.9579C1.04887 37.3499 1.69972 37.4211 6.8583 37.6943C12.6195 37.9912 13.0655 37.9912 13.6078 37.7062C14.8854 37.0411 14.8613 34.9507 13.5717 34.2975C13.2945 34.1431 12.6075 34.0837 10.667 34.0125C7.9792 33.9056 3.55584 33.6918 2.33851 33.6087C1.94077 33.5849 1.45866 33.6087 1.26582 33.6562Z" fill="white"/>
<path d="M74.5346 33.7275C73.0763 33.8106 70.7621 33.9294 69.3881 33.9888C66.5316 34.1194 66.2544 34.2026 65.8084 35.129C65.4951 35.7466 65.4951 36.186 65.7843 36.8155C66.0495 37.3975 66.5196 37.7775 67.1101 37.8963C67.3512 37.9319 69.3037 37.8725 71.4612 37.7538C73.6186 37.635 76.0894 37.5043 76.9452 37.4568C78.7169 37.3737 79.2714 37.1955 79.645 36.5779C80.0066 35.996 80.0789 35.3903 79.8499 34.7964C79.6209 34.2026 79.2714 33.8581 78.7049 33.6681C78.2348 33.5137 78.0781 33.5137 74.5346 33.7275Z" fill="white"/>
<path d="M1.10907 41.8513C-0.120308 42.3976 -0.34931 43.9654 0.651068 45.0343L1.04881 45.4738L10.5584 45.5094L20.0801 45.5331L20.4778 45.2718C21.0564 44.8799 21.3456 44.4405 21.4059 43.8347C21.4903 43.1103 21.1046 42.3145 20.502 41.9463L20.056 41.6731L10.8356 41.6494C1.94071 41.6138 1.59118 41.6256 1.10907 41.8513Z" fill="white"/>
<path d="M65.3985 41.78C64.5066 42.1007 64.1089 42.6827 64.1089 43.6566C64.1089 44.4048 64.3982 44.9512 64.9767 45.2956C65.3624 45.5331 65.5552 45.5331 72.0878 45.5094C78.6445 45.4737 78.8012 45.4737 79.1266 45.2243C80.3681 44.3098 80.2716 42.5401 78.9338 41.875C78.4035 41.6137 78.4035 41.6137 72.124 41.6137C67.1582 41.6256 65.7601 41.6612 65.3985 41.78Z" fill="white"/>
<path d="M1.73583 50.1532C1.28988 50.3432 1.02472 50.7471 1.03677 51.2221C1.08498 52.2317 2.70005 56.3411 4.04996 58.8352C4.58028 59.821 5.50834 61.3769 5.73734 61.6738C5.7494 61.6976 6.26767 61.4957 6.8703 61.2106C10.3777 59.6191 15.0782 58.7046 18.9713 58.8827C21.3577 58.9896 23.021 59.2509 27.4082 60.2486C32.8319 61.4719 36.3393 61.6263 40.847 60.8424C42.7393 60.5099 44.5111 60.0467 47.7653 59.0015C49.2719 58.5146 51.2244 57.9326 52.1043 57.7188C59.806 55.7591 67.4595 56.4361 73.968 59.6547L75.1974 60.2605L75.4505 59.8804C76.4147 58.372 78.1864 54.2864 78.8132 52.101C79.0542 51.2459 79.0784 51.0915 78.9337 50.7589C78.6203 50.0107 79.6569 50.0463 60.7461 50.0463C49.7419 50.0463 43.0768 50.0938 42.2813 50.1651C40.7868 50.3195 39.2802 50.6639 36.6888 51.4478C30.9517 53.2056 27.601 53.1818 21.7434 51.3409C20.6828 51.0083 19.1882 50.6045 18.4289 50.4383L17.0428 50.1295L9.50986 50.0938C5.36371 50.0701 1.86841 50.0938 1.73583 50.1532Z" fill="white"/>
<path d="M57.4799 61.9827C54.7439 62.339 53.0083 62.7547 49.5853 63.883C45.3307 65.2844 43.5228 65.7833 41.0399 66.199C37.9183 66.7215 34.5917 66.7809 31.5062 66.3652C29.8309 66.1396 28.9631 65.9614 25.8655 65.2369C22.4546 64.4412 20.8516 64.1799 18.7906 64.0967C16.4644 64.0017 13.9936 64.2868 12.1013 64.845C10.6308 65.2844 9.02783 65.902 9.02783 66.0327C9.02783 66.1158 9.79921 66.9472 10.7514 67.8855C15.1024 72.2206 19.7668 75.2373 25.1785 77.2207C29.1921 78.6935 33.9168 79.6793 38.1834 79.9287L39.461 79.9999L39.9793 79.3705C41.498 77.5177 44.1857 75.1066 46.1744 73.8358C50.4049 71.116 55.6117 69.9046 60.3846 70.5222C61.7225 70.7003 64.0125 71.2229 64.6995 71.4961L65.1093 71.6623L66.1338 70.8072C66.7003 70.3321 67.7127 69.4295 68.3756 68.8119C69.6893 67.5767 72.3048 64.7856 72.3048 64.6193C72.3048 64.4531 70.0389 63.4673 68.5443 62.9922C67.0377 62.5052 65.278 62.1252 63.6268 61.9233C62.2769 61.7689 58.9142 61.7926 57.4799 61.9827Z" fill="white"/>
<path d="M56.5157 75.5817C53.8762 75.8193 50.7184 76.9832 48.5248 78.5272C48.0185 78.8835 47.6087 79.2042 47.6328 79.2279C47.7413 79.3229 52.5263 78.0402 53.8882 77.5533C55.2743 77.0545 58.3357 75.7242 58.5285 75.5342C58.625 75.4511 57.8897 75.4629 56.5157 75.5817Z" fill="white"/>
</svg>
