<svg width="24" height="24" viewBox="0 0 24 24" fill="none" xmlns="http://www.w3.org/2000/svg">
<path d="M1.86164 14.9652C1.18967 16.0052 0.896829 17.2445 1.03236 18.4747C1.16789 19.7049 1.72353 20.8511 2.60584 21.7203L3.35004 22.4803C3.69135 22.8135 4.14971 23 4.62703 23C5.10435 23 5.56271 22.8135 5.90402 22.4803L9.10072 19.2547C9.43333 18.9168 9.61971 18.4619 9.61971 17.9881C9.61971 17.5143 9.43333 17.0595 9.10072 16.7216V16.7216C8.76703 16.3808 8.5802 15.9231 8.5802 15.4465C8.5802 14.9699 8.76703 14.5123 9.10072 14.1715L14.1748 9.10517C14.3416 8.93616 14.5404 8.80195 14.7597 8.71034C14.9789 8.61873 15.2142 8.57156 15.4518 8.57156C15.6895 8.57156 15.9248 8.61873 16.144 8.71034C16.3632 8.80195 16.562 8.93616 16.7288 9.10517V9.10517C17.0673 9.43727 17.5228 9.62337 17.9973 9.62337C18.4719 9.62337 18.9274 9.43727 19.2659 9.10517L22.4795 5.89649C22.8132 5.55571 23 5.09805 23 4.62146C23 4.14487 22.8132 3.68722 22.4795 3.34643L21.7184 2.60337C20.8477 1.72241 19.6999 1.16763 18.4678 1.03231C17.2357 0.896985 15.9945 1.18937 14.9529 1.86031C9.79294 5.35616 5.34953 9.80421 1.86164 14.9652V14.9652Z" stroke="white" stroke-width="2" stroke-linecap="round" stroke-linejoin="round"/>
</svg>
