<svg width="22" height="22" viewBox="0 0 22 22" fill="none" xmlns="http://www.w3.org/2000/svg">
<path d="M17.4166 16.5L18.1666 16.5L18.1666 16.5L17.4166 16.5ZM4.58325 13.3686H5.33325C5.33325 13.0705 5.1567 12.8007 4.88353 12.6814L4.58325 13.3686ZM17.4166 13.3686L17.1163 12.6814C16.8431 12.8007 16.6666 13.0705 16.6666 13.3686L17.4166 13.3686ZM14.3749 6.41668C14.3749 6.83089 14.7107 7.16668 15.1249 7.16668C15.5391 7.16668 15.8749 6.83089 15.8749 6.41668H14.3749ZM6.12492 6.41668C6.12492 6.83089 6.46071 7.16668 6.87492 7.16668C7.28913 7.16668 7.62492 6.83089 7.62492 6.41668H6.12492ZM6.41659 3.83334C3.47107 3.83334 1.08325 6.22116 1.08325 9.16668H2.58325C2.58325 7.04959 4.29949 5.33334 6.41659 5.33334V3.83334ZM15.5833 5.33334C17.7003 5.33334 19.4166 7.04959 19.4166 9.16668H20.9166C20.9166 6.22116 18.5288 3.83334 15.5833 3.83334V5.33334ZM13.7499 19.4167H8.24992V20.9167H13.7499V19.4167ZM8.24992 19.4167C7.36447 19.4167 6.77584 19.4151 6.33819 19.3562C5.92211 19.3003 5.75646 19.2053 5.65055 19.0994L4.58989 20.16C5.02095 20.5911 5.55591 20.7646 6.13832 20.8429C6.69915 20.9183 7.40688 20.9167 8.24992 20.9167V19.4167ZM3.83325 16.5C3.83325 17.343 3.83166 18.0508 3.90706 18.6116C3.98536 19.194 4.15883 19.729 4.58989 20.16L5.65055 19.0994C5.54464 18.9935 5.44963 18.8278 5.39369 18.4117C5.33484 17.9741 5.33325 17.3855 5.33325 16.5H3.83325ZM16.6666 16.5C16.6666 17.3855 16.665 17.9741 16.6062 18.4117C16.5502 18.8278 16.4552 18.9935 16.3493 19.0994L17.4099 20.16C17.841 19.729 18.0145 19.194 18.0928 18.6116C18.1682 18.0508 18.1666 17.343 18.1666 16.5H16.6666ZM13.7499 20.9167C14.593 20.9167 15.3007 20.9183 15.8615 20.8429C16.4439 20.7646 16.9789 20.5911 17.4099 20.16L16.3493 19.0994C16.2434 19.2053 16.0777 19.3003 15.6616 19.3562C15.224 19.4151 14.6354 19.4167 13.7499 19.4167V20.9167ZM6.41659 5.33334C6.6094 5.33334 6.79845 5.34752 6.98284 5.37477L7.20216 3.8909C6.9454 3.85294 6.68305 3.83334 6.41659 3.83334V5.33334ZM10.9999 1.08334C8.85436 1.08334 7.03437 2.46893 6.38223 4.39197L7.80277 4.8737C8.25476 3.54086 9.5165 2.58334 10.9999 2.58334V1.08334ZM6.38223 4.39197C6.21519 4.88455 6.12492 5.41168 6.12492 5.95834H7.62492C7.62492 5.57764 7.68766 5.21314 7.80277 4.8737L6.38223 4.39197ZM15.5833 3.83334C15.3168 3.83334 15.0544 3.85294 14.7977 3.8909L15.017 5.37477C15.2014 5.34752 15.3904 5.33334 15.5833 5.33334V3.83334ZM10.9999 2.58334C12.4833 2.58334 13.7451 3.54086 14.1971 4.8737L15.6176 4.39197C14.9655 2.46894 13.1455 1.08334 10.9999 1.08334V2.58334ZM14.1971 4.8737C14.3122 5.21315 14.3749 5.57764 14.3749 5.95834H15.8749C15.8749 5.41168 15.7846 4.88455 15.6176 4.39197L14.1971 4.8737ZM5.33325 16.5V13.3686H3.83325V16.5H5.33325ZM4.88353 12.6814C3.5281 12.0892 2.58325 10.7374 2.58325 9.16668H1.08325C1.08325 11.3548 2.40091 13.2336 4.28297 14.0559L4.88353 12.6814ZM16.6666 13.3686L16.6666 16.5L18.1666 16.5L18.1666 13.3686L16.6666 13.3686ZM19.4166 9.16668C19.4166 10.7374 18.4717 12.0892 17.1163 12.6814L17.7169 14.0559C19.5989 13.2336 20.9166 11.3548 20.9166 9.16668H19.4166ZM14.3749 5.95834V6.41668H15.8749V5.95834H14.3749ZM6.12492 5.95834V6.41668H7.62492V5.95834H6.12492Z" fill="white"/>
<path d="M4.58325 16.5H17.4166" stroke="white" stroke-width="1.5" stroke-linecap="round" stroke-linejoin="round"/>
</svg>
