<svg width="140" height="140" viewBox="0 0 140 140" fill="none" xmlns="http://www.w3.org/2000/svg">
<path d="M68.8027 0.0778828C67.8536 0.285728 67.1153 0.805344 66.6302 1.59516C66.2295 2.23948 66.2084 2.71753 66.2084 13.5879C66.2084 26.2249 66.1662 25.8508 67.6848 26.8485C69.1613 27.8253 71.5869 27.181 72.4939 25.5806C72.8314 24.9779 72.8525 23.9386 72.8525 13.5879C72.8525 2.94616 72.8314 2.2187 72.4728 1.63673C71.7135 0.410437 70.1948 -0.233887 68.8027 0.0778828Z" fill="#AFAFAF"/>
<path d="M85.5078 2.09403C84.5375 2.30187 83.8837 2.65521 83.5251 3.17483C83.2931 3.4866 82.6814 5.41957 82.1752 7.45646C81.6479 9.51414 80.4456 14.1907 79.5176 17.8488C78.5473 21.6108 77.8091 24.9363 77.8091 25.5183C77.8091 26.8277 78.3997 27.763 79.5808 28.3242C80.6776 28.8646 81.2471 28.8646 82.365 28.3658C83.6095 27.8046 84.0524 27.1187 84.5586 24.9571C84.8117 23.8971 85.9929 19.2413 87.2163 14.5856C88.4185 9.92983 89.4099 5.71055 89.4099 5.21172C89.4099 3.32032 87.3428 1.67834 85.5078 2.09403Z" fill="#AFAFAF"/>
<path d="M51.275 2.57222C50.368 3.13341 49.7563 4.15185 49.7563 5.1703C49.7563 5.62756 50.0938 7.31111 50.5157 8.91153C50.9164 10.5119 52.1609 15.2716 53.2366 19.5117C55.156 27.0149 55.2193 27.2228 55.9364 27.8671C57.2863 29.0726 59.1846 28.9687 60.4923 27.6385C61.7579 26.3498 61.7368 26.1835 58.826 14.6065C57.4129 8.9531 56.1051 4.02715 55.9364 3.67381C55.2614 2.21888 52.8147 1.6577 51.275 2.57222Z" fill="#AFAFAF"/>
<path d="M35.9411 8.86981C35.3505 9.18158 34.9497 9.63884 34.5912 10.3455C33.7686 11.9875 33.4522 11.3016 42.1211 26.4744C43.3234 28.5944 44.5467 30.6313 44.842 31.0054C45.5803 31.9823 46.4661 32.3564 47.6895 32.2525C49.3136 32.0862 50.537 30.9846 50.7479 29.4674C50.8744 28.5113 50.6635 28.0748 45.1584 18.1605C40.94 10.5326 40.2439 9.43099 39.4213 8.84903C38.4932 8.24627 37.0801 8.24627 35.9411 8.86981Z" fill="#AFAFAF"/>
<path d="M100.273 8.68285C99.3868 9.05698 98.7118 9.90915 97.5306 12.0707C96.9612 13.0684 95.3159 16.0406 93.8395 18.6803C89.2625 26.8486 88.5664 28.2412 88.5664 29.2596C88.5664 31.6914 91.4771 33.2087 93.5653 31.8369C94.4512 31.2549 94.3457 31.4004 98.6907 23.7725C105.525 11.8005 105.082 12.6527 104.976 11.4888C104.807 9.76365 103.626 8.59972 101.918 8.45422C101.327 8.41265 100.631 8.51658 100.273 8.68285Z" fill="#AFAFAF"/>
<path d="M22.6528 17.9318C20.7545 18.8048 20.185 21.0495 21.4294 22.7331C21.8091 23.2111 24.8886 26.4328 28.2844 29.883C31.7014 33.3125 34.8442 36.5341 35.2871 37.0121C35.7089 37.4902 36.4894 38.0929 37.0167 38.3216C37.8604 38.7372 38.0502 38.758 38.9993 38.5294C40.286 38.2176 41.214 37.3862 41.5515 36.2223C41.9312 35.0168 41.5304 33.9776 40.1172 32.4395C38.7462 30.9638 27.5462 19.366 26.7658 18.597C25.6268 17.5162 24.1082 17.2667 22.6528 17.9318Z" fill="#AFAFAF"/>
<path d="M113.561 17.9318C113.097 18.1397 112.084 18.9503 111.325 19.7401C98.9015 32.6058 97.9312 33.6658 97.7203 34.6635C97.3828 36.4509 98.3741 38.0306 100.125 38.5502C101.918 39.0698 102.276 38.8204 107.423 33.6866C114.531 26.5782 118.496 22.3798 118.644 21.7978C119.361 18.9711 116.324 16.664 113.561 17.9318Z" fill="#AFAFAF"/>
<path d="M12.7395 29.4675C11.8747 29.8417 11.0099 30.8809 10.7357 31.8785C10.4826 32.8138 10.6935 33.9362 11.2841 34.7676C11.6848 35.308 14.7854 37.3449 21.3873 41.3771C30.6258 46.989 30.0774 46.7603 31.6804 46.0537C34.1271 44.9936 34.6544 42.1461 32.7139 40.3379C32.06 39.7351 17.5696 30.6522 15.8189 29.7585C14.5745 29.1142 13.7308 29.0518 12.7395 29.4675Z" fill="#AFAFAF"/>
<path d="M123.917 29.5298C123.031 29.987 107.992 39.5064 107.17 40.1299C106.263 40.795 105.82 41.7095 105.82 42.8943C105.82 44.079 106.263 44.9935 107.17 45.6586C108.604 46.7186 109.764 46.5939 112.19 45.1182C118.602 41.2315 127.271 35.7651 127.861 35.2247C129.169 34.0608 129.401 32.5851 128.578 31.0262C127.693 29.405 125.478 28.6776 123.917 29.5298Z" fill="#AFAFAF"/>
<path d="M70.9543 41.2523C65.7656 41.9382 60.4503 44.079 56.1053 47.2175C54.2703 48.5477 50.6635 52.2889 49.3769 54.2219C47.7949 56.5497 46.0864 60.1247 45.4537 62.3279C44.4834 65.7365 44.2092 67.8358 44.3358 71.2653C44.4412 74.5908 44.6311 75.7339 45.4748 78.2905L46.0021 79.8909L74.7087 79.8493L103.436 79.7869L103.901 78.1657C104.892 74.7155 105.082 73.4476 105.082 70.226C105.082 67.8358 104.976 66.6095 104.639 65.0091C103.331 58.9608 100.694 54.2219 96.1596 49.7324C91.7724 45.4092 87.1532 42.9358 80.9942 41.6264C78.653 41.1483 73.2955 40.9405 70.9543 41.2523Z" fill="#AFAFAF"/>
<path d="M132.333 43.1438C131.869 43.2477 127.313 44.6818 122.209 46.3654C113.666 49.1713 112.865 49.4623 112.148 50.169C109.996 52.2682 111.494 55.8847 114.51 55.8432C115.501 55.8432 132.312 50.4599 134.484 49.4623C138.112 47.7787 136.256 42.3332 132.333 43.1438Z" fill="#AFAFAF"/>
<path d="M5.12506 43.497C2.97365 44.7856 2.78381 47.9449 4.80868 49.2127C5.96876 49.961 24.6566 55.9885 25.7744 55.9885C27.8837 55.9885 29.5289 53.6814 28.8961 51.6238C28.3899 49.9194 28.2633 49.8571 17.5063 46.3445C7.08665 42.915 6.34842 42.7487 5.12506 43.497Z" fill="#AFAFAF"/>
<path d="M2.21433 58.8983C-0.126919 59.605 -0.780781 62.9721 1.07534 64.6764C1.83467 65.3623 2.97365 65.487 12.0012 65.9651C22.0833 66.4847 22.8637 66.4847 23.8129 65.9859C26.0487 64.8219 26.0065 61.1638 23.7496 60.0207C23.2645 59.7505 22.0622 59.6466 18.6663 59.5218C13.9628 59.3348 6.22187 58.9607 4.09155 58.8152C3.3955 58.7736 2.55181 58.8152 2.21433 58.8983Z" fill="#AFAFAF"/>
<path d="M130.435 59.0233C127.882 59.1688 123.833 59.3766 121.428 59.4806C116.429 59.7092 115.944 59.8547 115.164 61.4759C114.615 62.5567 114.615 63.3257 115.122 64.4273C115.586 65.4457 116.408 66.1109 117.442 66.3187C117.864 66.3811 121.281 66.2771 125.056 66.0693C128.832 65.8614 133.156 65.6328 134.653 65.5497C137.754 65.4042 138.724 65.0924 139.378 64.0116C140.011 62.9932 140.137 61.9331 139.736 60.8939C139.336 59.8547 138.724 59.2519 137.733 58.9194C136.91 58.6492 136.636 58.6492 130.435 59.0233Z" fill="#AFAFAF"/>
<path d="M1.94008 73.2399C-0.211332 74.196 -0.612087 76.9395 1.13858 78.8102L1.83462 79.5792L18.4765 79.6415L35.1394 79.6831L35.8354 79.2258C36.8479 78.54 37.3541 77.7709 37.4596 76.7109C37.6072 75.443 36.9322 74.0505 35.8776 73.4062L35.0972 72.9281L18.9616 72.8865C3.39545 72.8242 2.78378 72.845 1.94008 73.2399Z" fill="#AFAFAF"/>
<path d="M114.447 73.1152C112.886 73.6764 112.19 74.6949 112.19 76.3992C112.19 77.7086 112.696 78.6647 113.708 79.2675C114.383 79.6832 114.721 79.6832 126.153 79.6416C137.627 79.5793 137.901 79.5793 138.471 79.1428C140.643 77.5424 140.475 74.4455 138.133 73.2815C137.205 72.8243 137.205 72.8243 126.216 72.8243C117.526 72.845 115.079 72.9074 114.447 73.1152Z" fill="#AFAFAF"/>
<path d="M3.03679 87.7682C2.25637 88.1008 1.79234 88.8075 1.81343 89.6388C1.8978 91.4055 4.72417 98.597 7.08651 102.962C8.01458 104.687 9.63868 107.41 10.0394 107.929C10.0605 107.971 10.9675 107.618 12.0221 107.119C18.16 104.334 26.386 102.733 33.1988 103.045C37.3751 103.232 40.2858 103.689 47.9634 105.435C57.455 107.576 63.5928 107.846 71.4814 106.474C74.7929 105.892 77.8934 105.082 83.5884 103.253C86.2249 102.401 89.6419 101.382 91.1816 101.008C104.66 97.5786 118.053 98.7633 129.443 104.396L131.594 105.456L132.037 104.791C133.725 102.151 136.825 95.0013 137.922 91.1769C138.344 89.6804 138.386 89.4102 138.133 88.8282C137.585 87.5188 139.399 87.5812 106.305 87.5812C87.0475 87.5812 75.3834 87.6643 73.9914 87.789C71.3759 88.0592 68.7394 88.662 64.2045 90.0337C54.1646 93.1099 48.3009 93.0683 38.05 89.8467C36.1939 89.2647 33.5785 88.558 32.2497 88.2671L29.824 87.7267L16.6413 87.6643C9.38558 87.6227 3.2688 87.6643 3.03679 87.7682Z" fill="#AFAFAF"/>
<path d="M100.589 108.47C95.801 109.093 92.7637 109.821 86.7735 111.795C79.3279 114.248 76.1641 115.121 71.8191 115.848C66.3562 116.763 60.5347 116.867 55.135 116.139C52.2032 115.744 50.6846 115.433 45.2638 114.165C39.2947 112.772 36.4894 112.315 32.8826 112.169C28.8118 112.003 24.4879 112.502 21.1764 113.479C18.6031 114.248 15.7979 115.329 15.7979 115.557C15.7979 115.703 17.1478 117.158 18.8141 118.8C26.4284 126.386 34.5911 131.665 44.0616 135.136C51.0853 137.714 59.3535 139.439 66.8202 139.875L69.056 140L69.9629 138.898C72.6206 135.656 77.3242 131.437 80.8044 129.213C88.2078 124.453 97.3197 122.333 105.672 123.414C108.013 123.726 112.021 124.64 113.223 125.118L113.94 125.409L115.733 123.913C116.725 123.081 118.496 121.502 119.656 120.421C121.956 118.259 126.533 113.375 126.533 113.084C126.533 112.793 122.567 111.068 119.952 110.236C117.315 109.384 114.236 108.719 111.346 108.366C108.984 108.096 103.099 108.137 100.589 108.47Z" fill="#AFAFAF"/>
<path d="M98.9015 132.268C94.2823 132.684 88.7561 134.721 84.9173 137.423C84.0315 138.046 83.3143 138.607 83.3565 138.649C83.5463 138.815 91.92 136.57 94.3034 135.718C96.729 134.845 102.086 132.517 102.424 132.185C102.593 132.039 101.306 132.06 98.9015 132.268Z" fill="#AFAFAF"/>
</svg>
