<svg width="22" height="18" viewBox="0 0 22 18" fill="none" xmlns="http://www.w3.org/2000/svg">
<path d="M10.9998 17C12.1128 17 13.0151 16.1057 13.0151 15.0026C13.0151 13.8994 12.1128 13.0051 10.9998 13.0051C9.88669 13.0051 8.98438 13.8994 8.98438 15.0026C8.98438 16.1057 9.88669 17 10.9998 17Z" stroke="white" stroke-width="2" stroke-linecap="round" stroke-linejoin="round"/>
<path d="M7.19971 10.5197C7.69998 10.0107 8.29804 9.60616 8.95861 9.32993C9.61919 9.05369 10.3289 8.91138 11.0459 8.91138C11.7628 8.91138 12.4725 9.05369 13.1331 9.32993C13.7937 9.60616 14.3917 10.0107 14.892 10.5197" stroke="white" stroke-width="2" stroke-linecap="round" stroke-linejoin="round"/>
<path d="M3.86133 7.94296C4.79781 7.0094 5.91127 6.26854 7.13768 5.76299C8.36408 5.25745 9.67923 4.99719 11.0075 4.99719C12.3357 4.99719 13.6509 5.25745 14.8773 5.76299C16.1037 6.26854 17.2172 7.0094 18.1536 7.94296" stroke="white" stroke-width="2" stroke-linecap="round" stroke-linejoin="round"/>
<path d="M1 5.10678C2.31297 3.80482 3.87191 2.772 5.58775 2.06735C7.30358 1.36269 9.14269 1 11 1C12.8573 1 14.6964 1.36269 16.4123 2.06735C18.1281 2.772 19.687 3.80482 21 5.10678" stroke="white" stroke-width="2" stroke-linecap="round" stroke-linejoin="round"/>
</svg>
